PathFileType	4	(X/Y/Z)	C:\Users\°ÂÌØÂü\Desktop\20201223\Trimmed_bx_n_5_501.trc
DataRate	CameraRate	NumFrames	NumMarkers	Units	OrigDataRate	OrigDataStartFrame	OrigNumFrames
50.00	50.00	      4	43	mm	50.00	1084	      1445
Frame#	Time	Top.Head			R.Acromium			L.Acromium			Sternum			R.ASIS			L.ASIS			V.Sacral			R.Thigh.Upper			R.Thigh.Front			R.Thigh.Rear			R.Knee.Lat			R.Knee.Med			R.Shank.Upper			R.Shank.Front			R.Shank.Rear			R.Ankle.Lat			R.Midfoot.Lat			R.Toe.Lat			R.Toe.Tip			R.Toe.Med			R.Ankle.Med			R.Midfoot.Sup			R.Heel			L.Thigh.Upper			L.Thigh.Front			L.Thigh.Rear			L.Knee.Lat			L.Knee.Med			L.Shank.Upper			L.Shank.Front			L.Shank.Rear			L.Ankle.Lat			L.Midfoot.Lat			L.Toe.Lat			L.Toe.Tip			L.Toe.Med			L.Ankle.Med			L.Midfoot.Sup			L.Heel			origin1 front left			origin2 front right			origin 3 back right			origin 4 back leftt			
		X1	Y1	Z1	X2	Y2	Z2	X3	Y3	Z3	X4	Y4	Z4	X5	Y5	Z5	X6	Y6	Z6	X7	Y7	Z7	X8	Y8	Z8	X9	Y9	Z9	X10	Y10	Z10	X11	Y11	Z11	X12	Y12	Z12	X13	Y13	Z13	X14	Y14	Z14	X15	Y15	Z15	X16	Y16	Z16	X17	Y17	Z17	X18	Y18	Z18	X19	Y19	Z19	X20	Y20	Z20	X21	Y21	Z21	X22	Y22	Z22	X23	Y23	Z23	X24	Y24	Z24	X25	Y25	Z25	X26	Y26	Z26	X27	Y27	Z27	X28	Y28	Z28	X29	Y29	Z29	X30	Y30	Z30	X31	Y31	Z31	X32	Y32	Z32	X33	Y33	Z33	X34	Y34	Z34	X35	Y35	Z35	X36	Y36	Z36	X37	Y37	Z37	X38	Y38	Z38	X39	Y39	Z39	X40	Y40	Z40	X41	Y41	Z41	X42	Y42	Z42	X43	Y43	Z43	

1084	21.660	-635.78656	251.12721	1835.69250	-614.60596	67.23420	1532.52087	-622.05096	428.74875	1526.63330	-505.28888	249.37788	1359.34741	-503.36182	122.67407	1030.86536	-487.46695	350.48938	1035.66675	-697.78760	239.65756	1054.28418	-585.20300	70.43235	831.00354	-500.21307	132.37585	808.59357	-596.25757	87.05366	722.64899	-643.28448	109.69153	605.09058	-625.54114	217.47017	562.38477	-678.97937	110.21524	540.30743	-602.17828	159.38834	522.18005	-691.13354	103.26516	489.43097	-697.32025	136.06912	212.64366	-624.00690	73.68177	165.12453	-577.68060	50.68557	160.74147	-501.80438	95.06232	159.15623	-543.44366	146.15269	162.44066	-646.79260	212.34196	219.62140	-605.86945	185.11317	169.20863	-733.64447	202.53966	169.77719	-585.66559	429.57104	854.12286	-503.54922	382.32242	811.23999	-614.25531	417.34509	741.38037	-637.23969	399.08585	607.05743	-574.15698	302.62436	558.07471	-655.78302	401.46481	561.24902	-596.02393	349.87329	533.58795	-713.20746	401.03210	499.86914	-680.18890	405.28345	216.09093	-588.66956	462.05576	163.99947	-551.21820	474.24927	158.88283	-487.89963	424.36673	166.15707	-525.91223	384.20200	176.57687	-641.45313	317.11850	206.09669	-593.19110	341.13696	168.65198	-732.09851	333.71771	162.75984	-443.79999	448.83554	146.93478	-450.40289	74.99181	143.06177	-806.19702	82.68617	140.65305	-799.97809	456.37222	144.61247	
1085	21.680	-636.23260	251.62924	1835.75269	-615.23608	67.51377	1532.61707	-622.24243	429.01813	1526.64392	-505.70404	249.41893	1359.39966	-503.96707	122.71543	1031.00879	-487.80789	350.49652	1035.71826	-698.25983	239.93954	1054.27905	-585.72321	70.53197	831.06708	-500.66672	132.35934	808.72736	-596.66992	87.11116	722.70166	-643.57104	109.78497	605.05548	-625.75067	217.55476	562.34229	-679.17426	110.27065	540.33765	-602.37323	159.46358	522.21063	-691.31464	103.34721	489.41916	-697.32983	136.07248	212.63226	-624.01147	73.67664	165.13206	-577.68872	50.68288	160.73958	-501.80716	95.06444	159.16190	-543.44556	146.12476	162.46155	-646.79712	212.34833	219.61362	-605.87085	185.11020	169.20709	-733.63892	202.54550	169.76497	-585.83258	429.69104	854.10773	-503.77264	382.29306	811.26837	-614.41138	417.40710	741.37543	-637.39429	399.18314	607.06689	-575.43909	302.58459	558.08862	-655.90594	401.54678	561.19800	-596.13635	349.91449	533.63660	-713.32770	401.15170	499.81613	-680.19586	405.30664	216.07986	-588.66766	462.05759	163.99934	-551.21820	474.24924	158.88287	-487.90076	424.36090	166.16762	-525.91254	384.19928	176.58023	-641.42932	317.11014	206.13347	-593.20752	341.13208	168.64259	-732.10529	333.73505	162.75494	-443.80664	448.83759	146.93716	-450.40820	74.98798	143.07797	-806.20520	82.67090	140.65671	-799.97247	456.37988	144.61772	
1086	21.700	-636.65881	252.11551	1835.80554	-615.86414	67.77984	1532.70520	-622.41846	429.27322	1526.64539	-506.09131	249.44716	1359.46057	-504.52859	122.77184	1031.14319	-488.11823	350.50803	1035.75378	-698.69818	240.23296	1054.27112	-586.20691	70.64198	831.12366	-501.08694	132.35861	808.85339	-597.05286	87.18237	722.75525	-643.83453	109.89398	605.01715	-625.94263	217.66502	562.29242	-679.35175	110.33691	540.36823	-602.54956	159.54478	522.22528	-691.47906	103.43869	489.41571	-697.33673	136.07475	212.62701	-624.01685	73.67696	165.14151	-577.69568	50.68272	160.74071	-501.80710	95.06684	159.16675	-543.44733	146.09990	162.47958	-646.80090	212.35629	219.60297	-605.87305	185.10713	169.20572	-733.63123	202.55469	169.75665	-585.97284	429.81815	854.08466	-503.97107	382.27530	811.28839	-614.54785	417.48926	741.36810	-637.52612	399.28455	607.06543	-576.76141	302.53192	558.11841	-656.01624	401.64059	561.15533	-596.23438	349.96054	533.68921	-713.43878	401.27325	499.76443	-680.19897	405.32767	216.06900	-588.66742	462.05960	163.99872	-551.21820	474.24921	158.88292	-487.89957	424.34909	166.17117	-525.91321	384.19839	176.58427	-641.40082	317.10666	206.17961	-593.22156	341.12482	168.63422	-732.10907	333.74829	162.74905	-443.81097	448.83920	146.93462	-450.41150	74.98776	143.09239	-806.21552	82.65231	140.66237	-799.96741	456.38522	144.62097	
1087	21.720	-637.06378	252.57730	1835.85120	-616.48938	68.03181	1532.78467	-622.58270	429.51523	1526.63928	-506.45129	249.47108	1359.53052	-505.04605	122.84377	1031.26636	-488.39938	350.52603	1035.77502	-699.10400	240.53392	1054.25891	-586.65063	70.75982	831.17554	-501.47021	132.37411	808.96997	-597.40210	87.26706	722.80896	-644.07104	110.01344	604.98071	-626.11444	217.79642	562.23706	-679.50897	110.41568	540.39648	-602.70227	159.63065	522.22601	-691.62262	103.53797	489.42068	-697.34119	136.07622	212.62759	-624.02191	73.68268	165.15352	-577.70123	50.68429	160.74585	-501.80450	95.06920	159.17085	-543.44873	146.07890	162.49429	-646.80469	212.36713	219.58784	-605.87549	185.10455	169.20476	-733.62140	202.56645	169.75246	-586.09119	429.94778	854.05493	-504.14578	382.27216	811.30377	-614.66602	417.59302	741.35815	-637.63269	399.38525	607.05304	-578.12378	302.46594	558.16449	-656.11243	401.74329	561.12305	-596.31738	350.01181	533.74310	-713.53809	401.39032	499.71378	-680.19849	405.34509	216.05748	-588.66888	462.06146	163.99734	-551.21820	474.24918	158.88295	-487.89682	424.33121	166.16814	-525.91425	384.19968	176.58882	-641.36810	317.10718	206.23369	-593.23279	341.11603	168.62729	-732.11041	333.75711	162.74229	-443.81253	448.83978	146.92563	-450.41302	74.99060	143.10471	-806.22717	82.63135	140.66983	-799.96368	456.38785	144.62222	
